{
  "accessors": [
    {
      "bufferView": 2,
      "componentType": 5126,
      "count": 14832,
      "max": [
        8.2416000366210938,
        8.2416000366210938,
        39.170352935791016
      ],
      "min": [
        -8.2416000366210938,
        -8.2416000366210938,
        2.4221999645233154
      ],
      "type": "VEC3"
    },
    {
      "bufferView": 2,
      "byteOffset": 177984,
      "componentType": 5126,
      "count": 14832,
      "max": [
        0.99998795986175537,
        0.99986922740936279,
        0.99875092506408691
      ],
      "min": [
        -0.99997198581695557,
        -0.9999503493309021,
        -1
      ],
      "type": "VEC3"
    },
    {
      "bufferView": 3,
      "componentType": 5126,
      "count": 14832,
      "max": [
        0.99910598993301392,
        0.99996769428253174,
        1,
        1
      ],
      "min": [
        -0.99907410144805908,
        -0.99981039762496948,
        -0.99998116493225098,
        -1
      ],
      "type": "VEC4"
    },
    {
      "bufferView": 1,
      "componentType": 5126,
      "count": 14832,
      "max": [
        0.99690002202987671,
        0.9968000054359436
      ],
      "min": [
        0.0054000001400709152,
        0.0057999999262392521
      ],
      "type": "VEC2"
    },
    {
      "bufferView": 0,
      "componentType": 5125,
      "count": 69996,
      "max": [
        14831
      ],
      "min": [
        0
      ],
      "type": "SCALAR"
    },
    {
      "bufferView": 2,
      "byteOffset": 355968,
      "componentType": 5126,
      "count": 1036,
      "max": [
        2.3308999538421631,
        2.5697999000549316,
        41.216499328613281
      ],
      "min": [
        -2.3685998916625977,
        -2.5780999660491943,
        37.378101348876953
      ],
      "type": "VEC3"
    },
    {
      "bufferView": 2,
      "byteOffset": 368400,
      "componentType": 5126,
      "count": 1036,
      "max": [
        0.99913650751113892,
        0.99715626239776611,
        0.99245262145996094
      ],
      "min": [
        -0.99840527772903442,
        -0.9971504807472229,
        -0.99244481325149536
      ],
      "type": "VEC3"
    },
    {
      "bufferView": 3,
      "byteOffset": 237312,
      "componentType": 5126,
      "count": 1036,
      "max": [
        0.99947273731231689,
        0.99805742502212524,
        0.54473990201950073,
        1
      ],
      "min": [
        -0.99952530860900879,
        -0.99801886081695557,
        -0.99714607000350952,
        1
      ],
      "type": "VEC4"
    },
    {
      "bufferView": 1,
      "byteOffset": 118656,
      "componentType": 5126,
      "count": 1036,
      "max": [
        0.6021999716758728,
        0.64520001411437988
      ],
      "min": [
        0.0048000002279877663,
        0.0070000002160668373
      ],
      "type": "VEC2"
    },
    {
      "bufferView": 0,
      "byteOffset": 279984,
      "componentType": 5125,
      "count": 4728,
      "max": [
        1035
      ],
      "min": [
        0
      ],
      "type": "SCALAR"
    },
    {
      "bufferView": 2,
      "byteOffset": 380832,
      "componentType": 5126,
      "count": 1561,
      "max": [
        8.4700002670288086,
        8.4702997207641602,
        43.841098785400391
      ],
      "min": [
        -8.4523000717163086,
        -8.741999626159668,
        37.921600341796875
      ],
      "type": "VEC3"
    },
    {
      "bufferView": 2,
      "byteOffset": 399564,
      "componentType": 5126,
      "count": 1561,
      "max": [
        0.96151477098464966,
        0.96502280235290527,
        0.99999183416366577
      ],
      "min": [
        -0.9611625075340271,
        -0.96284401416778564,
        -0.96455472707748413
      ],
      "type": "VEC3"
    },
    {
      "bufferView": 3,
      "byteOffset": 253888,
      "componentType": 5126,
      "count": 1561,
      "max": [
        0.99763596057891846,
        0.97321176528930664,
        0.96559345722198486,
        1
      ],
      "min": [
        -0.81650781631469727,
        -0.87987345457077026,
        -0.96630245447158813,
        1
      ],
      "type": "VEC4"
    },
    {
      "bufferView": 1,
      "byteOffset": 126944,
      "componentType": 5126,
      "count": 1561,
      "max": [
        0.99159997701644897,
        0.99210000038146973
      ],
      "min": [
        0.0054999999701976776,
        0.5055999755859375
      ],
      "type": "VEC2"
    },
    {
      "bufferView": 0,
      "byteOffset": 298896,
      "componentType": 5125,
      "count": 7560,
      "max": [
        1560
      ],
      "min": [
        0
      ],
      "type": "SCALAR"
    }
  ],
  "asset": {
    "extras": {
      "author": "chinabazooka (https://sketchfab.com/chinabazooka)",
      "license": "CC-BY-4.0 (http://creativecommons.org/licenses/by/4.0/)",
      "source": "https://sketchfab.com/3d-models/jellyfish-d93ac9460e8946ce9b33048e4954b0dd",
      "title": "Jellyfish"
    },
    "generator": "Sketchfab-7.27.0",
    "version": "2.0"
  },
  "bufferViews": [
    {
      "buffer": 0,
      "byteLength": 329136,
      "byteOffset": 0,
      "name": "floatBufferViews",
      "target": 34963
    },
    {
      "buffer": 0,
      "byteLength": 139432,
      "byteOffset": 329136,
      "byteStride": 8,
      "name": "floatBufferViews",
      "target": 34962
    },
    {
      "buffer": 0,
      "byteLength": 418296,
      "byteOffset": 468568,
      "byteStride": 12,
      "name": "floatBufferViews",
      "target": 34962
    },
    {
      "buffer": 0,
      "byteLength": 278864,
      "byteOffset": 886864,
      "byteStride": 16,
      "name": "floatBufferViews",
      "target": 34962
    }
  ],
  "buffers": [
    {
      "byteLength": 1165728,
      "uri": "scene.bin"
    }
  ],
  "images": [
    {
      "uri": "textures/01_-_Default_baseColor.png"
    },
    {
      "uri": "textures/03_-_Default_baseColor.png"
    }
  ],
  "materials": [
    {
      "doubleSided": true,
      "emissiveFactor": [
        1,
        1,
        1
      ],
      "emissiveTexture": {
        "index": 0,
        "texCoord": 0
      },
      "name": "01_-_Default",
      "pbrMetallicRoughness": {
        "baseColorFactor": [
          1,
          1,
          1,
          1
        ],
        "baseColorTexture": {
          "index": 0,
          "texCoord": 0
        },
        "metallicFactor": 0,
        "roughnessFactor": 0.59999999999999998
      }
    },
    {
      "doubleSided": true,
      "emissiveFactor": [
        1,
        1,
        1
      ],
      "emissiveTexture": {
        "index": 0,
        "texCoord": 0
      },
      "name": "02_-_Default",
      "pbrMetallicRoughness": {
        "baseColorFactor": [
          1,
          1,
          1,
          1
        ],
        "baseColorTexture": {
          "index": 0,
          "texCoord": 0
        },
        "metallicFactor": 0,
        "roughnessFactor": 0.59999999999999998
      }
    },
    {
      "alphaMode": "BLEND",
      "doubleSided": true,
      "emissiveFactor": [
        0.92320884146341453,
        0.92320884146341453,
        0.92320884146341453
      ],
      "emissiveTexture": {
        "index": 0,
        "texCoord": 0
      },
      "name": "03_-_Default",
      "pbrMetallicRoughness": {
        "baseColorFactor": [
          1,
          1,
          1,
          1
        ],
        "baseColorTexture": {
          "index": 1,
          "texCoord": 0
        },
        "metallicFactor": 0,
        "roughnessFactor": 0.59999999999999998
      }
    }
  ],
  "meshes": [
    {
      "name": "Object02_01 - Default_0",
      "primitives": [
        {
          "attributes": {
            "NORMAL": 1,
            "POSITION": 0,
            "TANGENT": 2,
            "TEXCOORD_0": 3
          },
          "indices": 4,
          "material": 0,
          "mode": 4
        }
      ]
    },
    {
      "name": "Object003_02 - Default_0",
      "primitives": [
        {
          "attributes": {
            "NORMAL": 6,
            "POSITION": 5,
            "TANGENT": 7,
            "TEXCOORD_0": 8
          },
          "indices": 9,
          "material": 1,
          "mode": 4
        }
      ]
    },
    {
      "name": "Object004_03 - Default_0",
      "primitives": [
        {
          "attributes": {
            "NORMAL": 11,
            "POSITION": 10,
            "TANGENT": 12,
            "TEXCOORD_0": 13
          },
          "indices": 14,
          "material": 2,
          "mode": 4
        }
      ]
    }
  ],
  "nodes": [
    {
      "children": [
        1
      ],
      "name": "RootNode (gltf orientation matrix)",
      "rotation": [
        -0.70710678118654746,
        -0,
        -0,
        0.70710678118654757
      ]
    },
    {
      "children": [
        2
      ],
      "name": "RootNode (model correction matrix)"
    },
    {
      "children": [
        3
      ],
      "matrix": [
        1,
        0,
        0,
        0,
        0,
        0,
        1,
        0,
        0,
        -1,
        0,
        0,
        0,
        0,
        0,
        1
      ],
      "name": "shuimu_01.FBX"
    },
    {
      "children": [
        4,
        6,
        8
      ],
      "name": "RootNode"
    },
    {
      "children": [
        5
      ],
      "matrix": [
        1,
        0,
        0,
        0,
        0,
        2.2204460492503131e-16,
        -1,
        0,
        0,
        1,
        2.2204460492503131e-16,
        0,
        0,
        0,
        0,
        1
      ],
      "name": "Object02"
    },
    {
      "mesh": 0,
      "name": "Object02_01 - Default_0"
    },
    {
      "children": [
        7
      ],
      "matrix": [
        1,
        0,
        0,
        0,
        0,
        2.2204460492503131e-16,
        -1,
        0,
        0,
        1,
        2.2204460492503131e-16,
        0,
        0,
        0,
        0,
        1
      ],
      "name": "Object003"
    },
    {
      "mesh": 1,
      "name": "Object003_02 - Default_0"
    },
    {
      "children": [
        9
      ],
      "matrix": [
        1,
        0,
        0,
        0,
        0,
        2.2204460492503131e-16,
        -1,
        0,
        0,
        1,
        2.2204460492503131e-16,
        0,
        0,
        0,
        0,
        1
      ],
      "name": "Object004"
    },
    {
      "mesh": 2,
      "name": "Object004_03 - Default_0"
    }
  ],
  "samplers": [
    {
      "magFilter": 9729,
      "minFilter": 9987,
      "wrapS": 10497,
      "wrapT": 10497
    }
  ],
  "scene": 0,
  "scenes": [
    {
      "name": "OSG_Scene",
      "nodes": [
        0
      ]
    }
  ],
  "textures": [
    {
      "sampler": 0,
      "source": 0
    },
    {
      "sampler": 0,
      "source": 1
    }
  ]
}

