{
  "accessors": [
    {
      "bufferView": 2,
      "componentType": 5126,
      "count": 591,
      "max": [
        0.807733416557312,
        3.221672773361206,
        0.8150336742401123
      ],
      "min": [
        -0.8074058294296265,
        -0.07720479369163513,
        -0.8001108169555664
      ],
      "type": "VEC3"
    },
    {
      "bufferView": 2,
      "byteOffset": 7092,
      "componentType": 5126,
      "count": 591,
      "max": [
        0.9954028129577637,
        0.9999998807907104,
        0.9953811168670654
      ],
      "min": [
        -0.9953945279121399,
        -1.0,
        -0.9954161047935486
      ],
      "type": "VEC3"
    },
    {
      "bufferView": 1,
      "componentType": 5126,
      "count": 591,
      "max": [
        0.9991797208786011,
        0.9972001910209656
      ],
      "min": [
        0.004999130964279175,
        0.0005438923835754395
      ],
      "type": "VEC2"
    },
    {
      "bufferView": 1,
      "byteOffset": 4728,
      "componentType": 5126,
      "count": 591,
      "max": [
        0.9991797208786011,
        0.9972001910209656
      ],
      "min": [
        0.004999130964279175,
        0.0005438923835754395
      ],
      "type": "VEC2"
    },
    {
      "bufferView": 0,
      "componentType": 5125,
      "count": 1434,
      "type": "SCALAR"
    }
  ],
  "asset": {
    "extras": {
      "author": "Ethan Buot (https://sketchfab.com/ethan.buot)",
      "license": "CC-BY-4.0 (http://creativecommons.org/licenses/by/4.0/)",
      "source": "https://sketchfab.com/3d-models/macha-bubble-tea-68e89a16259742788160a2b73f982fd8",
      "title": "Macha Bubble Tea"
    },
    "generator": "Sketchfab-11.59.2",
    "version": "2.0"
  },
  "bufferViews": [
    {
      "buffer": 0,
      "byteLength": 5736,
      "name": "floatBufferViews",
      "target": 34963
    },
    {
      "buffer": 0,
      "byteLength": 9456,
      "byteOffset": 5736,
      "byteStride": 8,
      "name": "floatBufferViews",
      "target": 34962
    },
    {
      "buffer": 0,
      "byteLength": 14184,
      "byteOffset": 15192,
      "byteStride": 12,
      "name": "floatBufferViews",
      "target": 34962
    }
  ],
  "buffers": [
    {
      "byteLength": 29376,
      "uri": "scene.bin"
    }
  ],
  "images": [
    {
      "uri": "textures/boba_blinn_texture_baseColor.png"
    },
    {
      "uri": "textures/boba_blinn_texture_metallicRoughness.png"
    }
  ],
  "materials": [
    {
      "doubleSided": true,
      "name": "boba_blinn_texture",
      "pbrMetallicRoughness": {
        "baseColorTexture": {
          "index": 0
        },
        "metallicFactor": 0.0929126462,
        "metallicRoughnessTexture": {
          "index": 1
        },
        "roughnessFactor": 0.9207483815999999
      }
    }
  ],
  "meshes": [
    {
      "name": "pCylinder17_boba_blinn_texture_0",
      "primitives": [
        {
          "attributes": {
            "NORMAL": 1,
            "POSITION": 0,
            "TEXCOORD_0": 2,
            "TEXCOORD_1": 3
          },
          "indices": 4,
          "material": 0,
          "mode": 4
        }
      ]
    }
  ],
  "nodes": [
    {
      "children": [
        1
      ],
      "matrix": [
        1.0,
        -1.6081226229577292e-16,
        -5.356124287284811e-32,
        0.0,
        8.006836424271825e-33,
        3.828568672208042e-16,
        -1.0,
        0.0,
        1.6081226229577292e-16,
        1.0,
        3.828568672208042e-16,
        0.0,
        -2.5283933475540865e-18,
        5.627326556256455e-34,
        -2.5343225781848666e-18,
        1.0
      ],
      "name": "Sketchfab_model"
    },
    {
      "children": [
        2
      ],
      "matrix": [
        0.009999999776482582,
        0.0,
        0.0,
        0.0,
        0.0,
        0.0,
        0.009999999776482582,
        0.0,
        0.0,
        -0.009999999776482582,
        0.0,
        0.0,
        0.0,
        0.0,
        0.0,
        1.0
      ],
      "name": "34b1a074e09c48878814fa8b30f3950a.fbx"
    },
    {
      "children": [
        3
      ],
      "name": "RootNode"
    },
    {
      "children": [
        4
      ],
      "name": "pCylinder17"
    },
    {
      "mesh": 0,
      "name": "pCylinder17_boba_blinn_texture_0"
    }
  ],
  "samplers": [
    {
      "magFilter": 9728,
      "minFilter": 9728,
      "wrapS": 10497,
      "wrapT": 10497
    },
    {
      "magFilter": 9729,
      "minFilter": 9987,
      "wrapS": 10497,
      "wrapT": 10497
    }
  ],
  "scene": 0,
  "scenes": [
    {
      "name": "Sketchfab_Scene",
      "nodes": [
        0
      ]
    }
  ],
  "textures": [
    {
      "sampler": 0,
      "source": 0
    },
    {
      "sampler": 1,
      "source": 1
    }
  ]
}
