{
  "accessors": [
    {
      "bufferView": 2,
      "componentType": 5126,
      "count": 3273,
      "max": [
        1,
        2.3346781730651855,
        1
      ],
      "min": [
        -1,
        -0.99466562271118164,
        -1
      ],
      "type": "VEC3"
    },
    {
      "bufferView": 2,
      "byteOffset": 39276,
      "componentType": 5126,
      "count": 3273,
      "max": [
        1,
        0.99981725215911865,
        1
      ],
      "min": [
        -1,
        -0.99976396560668945,
        -1
      ],
      "type": "VEC3"
    },
    {
      "bufferView": 1,
      "componentType": 5126,
      "count": 3273,
      "max": [
        1,
        1
      ],
      "min": [
        0,
        0.028919775038957596
      ],
      "type": "VEC2"
    },
    {
      "bufferView": 0,
      "componentType": 5125,
      "count": 12660,
      "max": [
        3272
      ],
      "min": [
        0
      ],
      "type": "SCALAR"
    },
    {
      "bufferView": 2,
      "byteOffset": 78552,
      "componentType": 5126,
      "count": 977,
      "max": [
        0.95042568445205688,
        1.6901135444641113,
        0.95042586326599121
      ],
      "min": [
        -0.95042580366134644,
        -0.94467782974243164,
        -0.95042586326599121
      ],
      "type": "VEC3"
    },
    {
      "bufferView": 2,
      "byteOffset": 90276,
      "componentType": 5126,
      "count": 977,
      "max": [
        1,
        0.99919247627258301,
        1
      ],
      "min": [
        -1,
        -0.99999058246612549,
        -1
      ],
      "type": "VEC3"
    },
    {
      "bufferView": 1,
      "byteOffset": 26184,
      "componentType": 5126,
      "count": 977,
      "max": [
        1,
        0.9233582615852356
      ],
      "min": [
        0,
        0.028919775038957596
      ],
      "type": "VEC2"
    },
    {
      "bufferView": 0,
      "byteOffset": 50640,
      "componentType": 5125,
      "count": 4596,
      "max": [
        976
      ],
      "min": [
        0
      ],
      "type": "SCALAR"
    },
    {
      "bufferView": 2,
      "byteOffset": 102000,
      "componentType": 5126,
      "count": 4104,
      "max": [
        0.98869597911834717,
        25.086061477661133,
        1.0098615884780884
      ],
      "min": [
        -1.0112881660461426,
        -25.086051940917969,
        -0.99013054370880127
      ],
      "type": "VEC3"
    },
    {
      "bufferView": 2,
      "byteOffset": 151248,
      "componentType": 5126,
      "count": 4104,
      "max": [
        0.99999988079071045,
        0.032472033053636551,
        1
      ],
      "min": [
        -0.99999988079071045,
        -0.03247186541557312,
        -0.99999988079071045
      ],
      "type": "VEC3"
    },
    {
      "bufferView": 1,
      "byteOffset": 34000,
      "componentType": 5126,
      "count": 4104,
      "max": [
        14.388154983520508,
        1
      ],
      "min": [
        0.83285009860992432,
        0.5
      ],
      "type": "VEC2"
    },
    {
      "bufferView": 0,
      "byteOffset": 69024,
      "componentType": 5125,
      "count": 14697,
      "max": [
        4103
      ],
      "min": [
        0
      ],
      "type": "SCALAR"
    },
    {
      "bufferView": 2,
      "byteOffset": 200496,
      "componentType": 5126,
      "count": 838,
      "max": [
        1.0120605230331421,
        25.086172103881836,
        0.98942309617996216
      ],
      "min": [
        -0.98792362213134766,
        -25.085943222045898,
        -1.0105690956115723
      ],
      "type": "VEC3"
    },
    {
      "bufferView": 2,
      "byteOffset": 210552,
      "componentType": 5126,
      "count": 838,
      "max": [
        0.99999868869781494,
        0,
        0.99999940395355225
      ],
      "min": [
        -0.99999964237213135,
        0,
        -1
      ],
      "type": "VEC3"
    },
    {
      "bufferView": 1,
      "byteOffset": 66832,
      "componentType": 5126,
      "count": 838,
      "max": [
        13.880527496337891,
        1
      ],
      "min": [
        0.84836763143539429,
        0.5
      ],
      "type": "VEC2"
    },
    {
      "bufferView": 0,
      "byteOffset": 127812,
      "componentType": 5125,
      "count": 2508,
      "max": [
        837
      ],
      "min": [
        0
      ],
      "type": "SCALAR"
    },
    {
      "bufferView": 2,
      "byteOffset": 220608,
      "componentType": 5126,
      "count": 62,
      "max": [
        0.75440442562103271,
        0.23500001430511475,
        0.85928189754486084
      ],
      "min": [
        -0.88004684448242188,
        -0.23500001430511475,
        -0.85928189754486084
      ],
      "type": "VEC3"
    },
    {
      "bufferView": 2,
      "byteOffset": 221352,
      "componentType": 5126,
      "count": 62,
      "max": [
        0.91868853569030762,
        1,
        0.90740251541137695
      ],
      "min": [
        -0.83307003974914551,
        -1,
        -0.90740251541137695
      ],
      "type": "VEC3"
    },
    {
      "bufferView": 0,
      "byteOffset": 137844,
      "componentType": 5125,
      "count": 360,
      "max": [
        61
      ],
      "min": [
        0
      ],
      "type": "SCALAR"
    },
    {
      "bufferView": 2,
      "byteOffset": 222096,
      "componentType": 5126,
      "count": 142,
      "max": [
        0.75440442562103271,
        0.23500001430511475,
        0.85928189754486084
      ],
      "min": [
        -0.89455884695053101,
        -0.23500001430511475,
        -0.85928189754486084
      ],
      "type": "VEC3"
    },
    {
      "bufferView": 2,
      "byteOffset": 223800,
      "componentType": 5126,
      "count": 142,
      "max": [
        0.93963772058486938,
        1,
        0.92351973056793213
      ],
      "min": [
        -0.93469119071960449,
        -1,
        -0.92411124706268311
      ],
      "type": "VEC3"
    },
    {
      "bufferView": 0,
      "byteOffset": 139284,
      "componentType": 5125,
      "count": 840,
      "max": [
        141
      ],
      "min": [
        0
      ],
      "type": "SCALAR"
    },
    {
      "bufferView": 2,
      "byteOffset": 225504,
      "componentType": 5126,
      "count": 242,
      "max": [
        0.75440442562103271,
        0.23500001430511475,
        0.85928189754486084
      ],
      "min": [
        -0.89333850145339966,
        -0.23500001430511475,
        -0.85928189754486084
      ],
      "type": "VEC3"
    },
    {
      "bufferView": 2,
      "byteOffset": 228408,
      "componentType": 5126,
      "count": 242,
      "max": [
        0.94357341527938843,
        1,
        0.93107467889785767
      ],
      "min": [
        -0.9311794638633728,
        -1,
        -0.9312584400177002
      ],
      "type": "VEC3"
    },
    {
      "bufferView": 0,
      "byteOffset": 142644,
      "componentType": 5125,
      "count": 1440,
      "max": [
        241
      ],
      "min": [
        0
      ],
      "type": "SCALAR"
    },
    {
      "bufferView": 2,
      "byteOffset": 231312,
      "componentType": 5126,
      "count": 163,
      "max": [
        0.80754232406616211,
        0.34999999403953552,
        0.81999999284744263
      ],
      "min": [
        -0.80754232406616211,
        -0.88999998569488525,
        -0.77152889966964722
      ],
      "type": "VEC3"
    },
    {
      "bufferView": 2,
      "byteOffset": 233268,
      "componentType": 5126,
      "count": 163,
      "max": [
        0.98479229211807251,
        0.71606898307800293,
        0.939677894115448
      ],
      "min": [
        -0.98479229211807251,
        -1,
        -0.99998438358306885
      ],
      "type": "VEC3"
    },
    {
      "bufferView": 0,
      "byteOffset": 148404,
      "componentType": 5125,
      "count": 216,
      "max": [
        162
      ],
      "min": [
        0
      ],
      "type": "SCALAR"
    },
    {
      "bufferView": 2,
      "byteOffset": 235224,
      "componentType": 5126,
      "count": 326,
      "max": [
        0.729744553565979,
        1.1584501266479492,
        1.120531439781189
      ],
      "min": [
        -0.66686749458312988,
        -1.0048640966415405,
        -1.1205315589904785
      ],
      "type": "VEC3"
    },
    {
      "bufferView": 2,
      "byteOffset": 239136,
      "componentType": 5126,
      "count": 326,
      "max": [
        0.99897807836532593,
        1,
        0.99061751365661621
      ],
      "min": [
        -0.99965870380401611,
        -0.99994361400604248,
        -0.99061751365661621
      ],
      "type": "VEC3"
    },
    {
      "bufferView": 1,
      "byteOffset": 73536,
      "componentType": 5126,
      "count": 326,
      "max": [
        0.8750002384185791,
        1.0000002384185791
      ],
      "min": [
        0.12500001490116119,
        0
      ],
      "type": "VEC2"
    },
    {
      "bufferView": 0,
      "byteOffset": 149268,
      "componentType": 5125,
      "count": 1344,
      "max": [
        325
      ],
      "min": [
        0
      ],
      "type": "SCALAR"
    },
    {
      "bufferView": 2,
      "byteOffset": 243048,
      "componentType": 5126,
      "count": 326,
      "max": [
        0.729744553565979,
        1.1584501266479492,
        1.120531439781189
      ],
      "min": [
        -0.66686749458312988,
        -1.0048640966415405,
        -1.1205315589904785
      ],
      "type": "VEC3"
    },
    {
      "bufferView": 2,
      "byteOffset": 246960,
      "componentType": 5126,
      "count": 326,
      "max": [
        0.99897807836532593,
        1,
        0.99061751365661621
      ],
      "min": [
        -0.99965870380401611,
        -0.99994361400604248,
        -0.99061751365661621
      ],
      "type": "VEC3"
    },
    {
      "bufferView": 1,
      "byteOffset": 76144,
      "componentType": 5126,
      "count": 326,
      "max": [
        0.8750002384185791,
        1.0000002384185791
      ],
      "min": [
        0.12500001490116119,
        0
      ],
      "type": "VEC2"
    },
    {
      "bufferView": 0,
      "byteOffset": 154644,
      "componentType": 5125,
      "count": 1344,
      "max": [
        325
      ],
      "min": [
        0
      ],
      "type": "SCALAR"
    }
  ],
  "asset": {
    "extras": {
      "author": "Felix Yadomi (https://sketchfab.com/felixyadomi)",
      "license": "CC-BY-4.0 (http://creativecommons.org/licenses/by/4.0/)",
      "source": "https://sketchfab.com/3d-models/cute-milkshake-3ba52a41b4b248df953684861d9e7a20",
      "title": "Cute milkshake"
    },
    "generator": "Sketchfab-9.75.0",
    "version": "2.0"
  },
  "bufferViews": [
    {
      "buffer": 0,
      "byteLength": 160020,
      "byteOffset": 0,
      "name": "floatBufferViews",
      "target": 34963
    },
    {
      "buffer": 0,
      "byteLength": 78752,
      "byteOffset": 160020,
      "byteStride": 8,
      "name": "floatBufferViews",
      "target": 34962
    },
    {
      "buffer": 0,
      "byteLength": 250872,
      "byteOffset": 238772,
      "byteStride": 12,
      "name": "floatBufferViews",
      "target": 34962
    }
  ],
  "buffers": [
    {
      "byteLength": 489644,
      "uri": "scene.bin"
    }
  ],
  "materials": [
    {
      "alphaMode": "BLEND",
      "doubleSided": true,
      "name": "glass",
      "pbrMetallicRoughness": {
        "baseColorFactor": [
          1,
          1,
          1,
          0.11115316564215749
        ],
        "metallicFactor": 1,
        "roughnessFactor": 1
      }
    },
    {
      "doubleSided": true,
      "name": "milk",
      "pbrMetallicRoughness": {
        "baseColorFactor": [
          0.80000000000000004,
          0.54768399999999995,
          0.64377700000000004,
          1
        ],
        "metallicFactor": 0,
        "roughnessFactor": 0.18181800000000001
      }
    },
    {
      "doubleSided": true,
      "name": "straw_1",
      "pbrMetallicRoughness": {
        "baseColorFactor": [
          1,
          0.91295199999999999,
          0.97780400000000001,
          1
        ],
        "metallicFactor": 0,
        "roughnessFactor": 0.5
      }
    },
    {
      "doubleSided": true,
      "name": "straw_2",
      "pbrMetallicRoughness": {
        "baseColorFactor": [
          0.79999999999999993,
          0.071962299999999979,
          0.11262599999999995,
          1
        ],
        "metallicFactor": 0,
        "roughnessFactor": 0.5
      }
    },
    {
      "doubleSided": true,
      "emissiveFactor": [
        0.5643160717217226,
        0.44817925984532037,
        0.07041648806157999
      ],
      "name": "stars",
      "pbrMetallicRoughness": {
        "baseColorFactor": [
          0.79999999999999993,
          0.52053399999999972,
          0.078235399999999955,
          1
        ],
        "metallicFactor": 0,
        "roughnessFactor": 0.5
      }
    },
    {
      "alphaMode": "BLEND",
      "doubleSided": true,
      "emissiveFactor": [
        0,
        0,
        0
      ],
      "name": "diamonds",
      "pbrMetallicRoughness": {
        "baseColorFactor": [
          0.23970100000000005,
          0.79999999999999993,
          0.72974499999999964,
          0.57324632605536607
        ],
        "metallicFactor": 0,
        "roughnessFactor": 0.13181799999999999
      }
    },
    {
      "doubleSided": true,
      "name": "hearth",
      "pbrMetallicRoughness": {
        "baseColorFactor": [
          0.79999999999999993,
          0.0011116600000000045,
          0.018953499999999981,
          1
        ],
        "metallicFactor": 0,
        "roughnessFactor": 0.127273
      }
    }
  ],
  "meshes": [
    {
      "primitives": [
        {
          "attributes": {
            "NORMAL": 1,
            "POSITION": 0,
            "TEXCOORD_0": 2
          },
          "indices": 3,
          "material": 0,
          "mode": 4
        }
      ]
    },
    {
      "primitives": [
        {
          "attributes": {
            "NORMAL": 5,
            "POSITION": 4,
            "TEXCOORD_0": 6
          },
          "indices": 7,
          "material": 1,
          "mode": 4
        }
      ]
    },
    {
      "primitives": [
        {
          "attributes": {
            "NORMAL": 9,
            "POSITION": 8,
            "TEXCOORD_0": 10
          },
          "indices": 11,
          "material": 2,
          "mode": 4
        }
      ]
    },
    {
      "primitives": [
        {
          "attributes": {
            "NORMAL": 13,
            "POSITION": 12,
            "TEXCOORD_0": 14
          },
          "indices": 15,
          "material": 3,
          "mode": 4
        }
      ]
    },
    {
      "primitives": [
        {
          "attributes": {
            "NORMAL": 17,
            "POSITION": 16
          },
          "indices": 18,
          "material": 4,
          "mode": 4
        }
      ]
    },
    {
      "primitives": [
        {
          "attributes": {
            "NORMAL": 20,
            "POSITION": 19
          },
          "indices": 21,
          "material": 4,
          "mode": 4
        }
      ]
    },
    {
      "primitives": [
        {
          "attributes": {
            "NORMAL": 23,
            "POSITION": 22
          },
          "indices": 24,
          "material": 4,
          "mode": 4
        }
      ]
    },
    {
      "primitives": [
        {
          "attributes": {
            "NORMAL": 26,
            "POSITION": 25
          },
          "indices": 27,
          "material": 5,
          "mode": 4
        }
      ]
    },
    {
      "primitives": [
        {
          "attributes": {
            "NORMAL": 29,
            "POSITION": 28,
            "TEXCOORD_0": 30
          },
          "indices": 31,
          "material": 6,
          "mode": 4
        }
      ]
    },
    {
      "primitives": [
        {
          "attributes": {
            "NORMAL": 33,
            "POSITION": 32,
            "TEXCOORD_0": 34
          },
          "indices": 35,
          "material": 6,
          "mode": 4
        }
      ]
    }
  ],
  "nodes": [
    {
      "children": [
        1
      ],
      "name": "RootNode (gltf orientation matrix)",
      "rotation": [
        -0.70710678118654746,
        -0,
        -0,
        0.70710678118654757
      ]
    },
    {
      "children": [
        2
      ],
      "matrix": [
        0.042961530387401581,
        0,
        0,
        0,
        0,
        0.042961530387401581,
        0,
        0,
        0,
        0,
        0.042961530387401581,
        0,
        0,
        0,
        0,
        1
      ],
      "name": "RootNode (model correction matrix)"
    },
    {
      "children": [
        3
      ],
      "name": "root"
    },
    {
      "children": [
        4,
        6,
        8,
        10,
        12,
        14,
        16,
        18,
        20,
        22
      ],
      "matrix": [
        1,
        0,
        0,
        0,
        0,
        2.2204460492503131e-16,
        1,
        0,
        0,
        -1,
        2.2204460492503131e-16,
        0,
        0,
        0,
        0,
        1
      ],
      "name": "GLTF_SceneRootNode"
    },
    {
      "children": [
        5
      ],
      "matrix": [
        1,
        0,
        0,
        0,
        0,
        1,
        0,
        0,
        0,
        0,
        1,
        0,
        0,
        1.0011944770812988,
        0,
        1
      ],
      "name": "cup_2"
    },
    {
      "mesh": 0,
      "name": ""
    },
    {
      "children": [
        7
      ],
      "matrix": [
        0.99550312757492065,
        0,
        0,
        0,
        0,
        0.99550312757492065,
        0,
        0,
        0,
        0,
        0.99550312757492065,
        0,
        0,
        1.0011944770812988,
        0,
        1
      ],
      "name": "liquid_3"
    },
    {
      "mesh": 1,
      "name": ""
    },
    {
      "children": [
        9
      ],
      "matrix": [
        0.093172237277030945,
        0,
        0,
        0,
        0,
        0.10073637783023477,
        0.044285370191353077,
        0,
        0,
        -0.037496648499321619,
        0.085294004188604472,
        0,
        -0.030591636896133423,
        2.6863534450531006,
        0.27656468749046326,
        1
      ],
      "name": "straw1_4"
    },
    {
      "mesh": 2,
      "name": ""
    },
    {
      "children": [
        11
      ],
      "matrix": [
        0.093172237277030945,
        0,
        0,
        0,
        0,
        0.10073637783023477,
        0.044285370191353077,
        0,
        0,
        -0.037496648499321619,
        0.085294004188604472,
        0,
        -0.032768577337265015,
        2.6855366230010986,
        0.27839219570159912,
        1
      ],
      "name": "straw2_5"
    },
    {
      "mesh": 3,
      "name": ""
    },
    {
      "children": [
        13
      ],
      "matrix": [
        -0.16650364552477831,
        0.10226324975031198,
        0.1302145153014316,
        -0,
        -0.16374734066596949,
        -0.12903694732769283,
        -0.1080431898219209,
        -0,
        -0.024503070030034158,
        0.1674178590246421,
        -0.16281245426112678,
        -0,
        -0.86056113243103027,
        4.3804826736450195,
        0.28694921731948853,
        1
      ],
      "name": "Star_6"
    },
    {
      "mesh": 4,
      "name": ""
    },
    {
      "children": [
        15
      ],
      "matrix": [
        -0.22001896333975621,
        0.13559563745372782,
        0.038338850569692155,
        -0,
        -0.11103755372143267,
        -0.1230664649312774,
        -0.20196462817692856,
        -0,
        0.086756606870850503,
        0.18636754104869985,
        -0.16126009858705545,
        -0,
        -0.77421963214874268,
        3.7937407493591309,
        -0.8494604229927063,
        1
      ],
      "name": "Star.001_7"
    },
    {
      "mesh": 5,
      "name": ""
    },
    {
      "children": [
        17
      ],
      "matrix": [
        0.21267665634250441,
        0.061459498877691213,
        0.28373113023475455,
        -0,
        -0.28998767174827067,
        0.028372209467283631,
        0.21122062490102092,
        -0,
        -0.013703081347100434,
        0.35345394433273236,
        -0.066290846397363504,
        -0,
        -1.0637333393096924,
        2.8301806449890137,
        1.5992848873138428,
        1
      ],
      "name": "Star.002_8"
    },
    {
      "mesh": 6,
      "name": ""
    },
    {
      "children": [
        19
      ],
      "matrix": [
        0.21848717398149428,
        0.022735228141245935,
        -0.14578535927352806,
        0,
        0.083375784596786948,
        0.19589257524261403,
        0.15550396869293368,
        0,
        0.12173224765860664,
        -0.1749746128378292,
        0.15515170483691554,
        0,
        -0.21612352132797241,
        3.8116953372955322,
        1.4122964143753052,
        1
      ],
      "name": "Gem_9"
    },
    {
      "mesh": 7,
      "name": ""
    },
    {
      "children": [
        21
      ],
      "matrix": [
        0.22115031996806325,
        -0.066644026746821669,
        0.022731561916464197,
        0,
        0.067839194250072496,
        0.22173179747269164,
        -0.0099227529642320778,
        0,
        -0.018867784581785865,
        0.016099427697117853,
        0.23076053052062345,
        0,
        -1.9557876586914062,
        4.4935364723205566,
        -0.93361282348632812,
        1
      ],
      "name": "Cube_10"
    },
    {
      "mesh": 8,
      "name": ""
    },
    {
      "children": [
        23
      ],
      "matrix": [
        0.2916620478477191,
        -0.051121127106774737,
        -0.043079450442034248,
        0,
        0.063153590515508007,
        0.27393788529140933,
        0.10249648126982083,
        0,
        0.021927796077244786,
        -0.108997879033933,
        0.27780299456795532,
        0,
        -1.8693194389343262,
        1.0357962846755981,
        1.3588907718658447,
        1
      ],
      "name": "Cube.001_11"
    },
    {
      "mesh": 9,
      "name": ""
    }
  ],
  "scene": 0,
  "scenes": [
    {
      "name": "OSG_Scene",
      "nodes": [
        0
      ]
    }
  ]
}

